<?xml version="1.0" encoding="UTF-8"?>
<svg id="Calque_2" data-name="Calque 2" xmlns="http://www.w3.org/2000/svg" viewBox="0 0 113.84 167.06">
  <defs>
    <style>
      .cls-1 {
        fill: #206083;
      }
    </style>
  </defs>
  <g id="Layer_1" data-name="Layer 1">
    <g>
      <path class="cls-1" d="M63.9,99.35l-1.49-1.06-28.53-20.19c-7.16-5.07-7.16-15.7,0-20.77l37.72-26.7V0L13.92,40.82c-18.56,13.14-18.56,40.68,0,53.82l28.32,20.04,21.66-15.32Z"/>
      <path class="cls-1" d="M99.91,72.44l-16.48-11.66-11.83-8.37-21.66,15.32h0s0,0,0,0l6.09,4.31,23.93,16.93c1.09.77,2,1.68,2.75,2.67,4.22,5.51,3.32,13.8-2.76,18.09l-37.71,26.68v30.65l57.67-40.8c18.57-13.14,18.57-40.69,0-53.82Z"/>
    </g>
  </g>
</svg>